HIERARCHY
ROOT newVegas:Hips
{
	OFFSET 0.000000 96.479958 0.000000
	CHANNELS 6 Xposition Yposition Zposition Xrotation Yrotation Zrotation
	JOINT newVegas:Pelvis
	{
		OFFSET 0.000000 0.000000 0.000000
		CHANNELS 3 Xrotation Yrotation Zrotation
		JOINT newVegas:LeftUpLeg
		{
			OFFSET 18.735201 -5.666702 -4.541200
			CHANNELS 3 Xrotation Yrotation Zrotation
			JOINT newVegas:LeftLeg
			{
				OFFSET -0.021200 -31.938179 0.493100
				CHANNELS 3 Xrotation Yrotation Zrotation
				JOINT newVegas:LeftFoot
				{
					OFFSET 0.021200 -31.938179 -4.336299
					CHANNELS 3 Xrotation Yrotation Zrotation
					JOINT newVegas:LeftToeBase
					{
						OFFSET 0.943001 -26.722000 15.023500
						CHANNELS 3 Xrotation Yrotation Zrotation
						End Site
						{
							OFFSET 0.000000 30.670183 0.000000
						}
					}
				}
				JOINT newVegas:Left_PantLeg
				{
					OFFSET 0.663870 -9.044666 -1.108900
					CHANNELS 3 Xrotation Yrotation Zrotation
					End Site
					{
						OFFSET 1.415995 20.635357 0.000000
					}
				}
			}
		}
		JOINT newVegas:RightUpLeg
		{
			OFFSET -18.735201 -5.666702 -4.541200
			CHANNELS 3 Xrotation Yrotation Zrotation
			JOINT newVegas:RightLeg
			{
				OFFSET 0.018946 -31.938133 0.493100
				CHANNELS 3 Xrotation Yrotation Zrotation
				JOINT newVegas:RightFoot
				{
					OFFSET -0.018946 -31.938126 -4.336299
					CHANNELS 3 Xrotation Yrotation Zrotation
					JOINT newVegas:RightToeBase
					{
						OFFSET -0.943001 -26.722004 15.023500
						CHANNELS 3 Xrotation Yrotation Zrotation
						End Site
						{
							OFFSET 0.000000 30.670187 0.000000
						}
					}
				}
				JOINT newVegas:Right_PantLeg
				{
					OFFSET -0.661674 -9.044716 -1.108900
					CHANNELS 3 Xrotation Yrotation Zrotation
					End Site
					{
						OFFSET -1.415958 20.635269 0.000000
					}
				}
			}
		}
	}
	JOINT newVegas:Spine
	{
		OFFSET 0.000000 10.199997 -0.299500
		CHANNELS 3 Xrotation Yrotation Zrotation
		JOINT newVegas:Spine1
		{
			OFFSET 0.000000 11.900002 -1.516600
			CHANNELS 3 Xrotation Yrotation Zrotation
			JOINT newVegas:Spine2
			{
				OFFSET 0.000000 13.600006 -2.842500
				CHANNELS 3 Xrotation Yrotation Zrotation
				JOINT newVegas:Neck
				{
					OFFSET 0.000000 9.624100 -2.890100
					CHANNELS 3 Xrotation Yrotation Zrotation
					JOINT newVegas:Head
					{
						OFFSET 0.000000 14.068802 -1.351900
						CHANNELS 3 Xrotation Yrotation Zrotation
						JOINT newVegas:Hair_Back
						{
							OFFSET 0.000000 3.231903 -17.524799
							CHANNELS 3 Xrotation Yrotation Zrotation
							End Site
							{
								OFFSET 0.000000 19.849884 0.000000
							}
						}
						JOINT newVegas:Hair_Front
						{
							OFFSET 0.000000 31.260406 4.573800
							CHANNELS 3 Xrotation Yrotation Zrotation
							JOINT newVegas:Hair_Front1
							{
								OFFSET 0.000000 2.284103 11.993300
								CHANNELS 3 Xrotation Yrotation Zrotation
								JOINT newVegas:Hair_Front2
								{
									OFFSET 0.000000 2.284103 11.993300
									CHANNELS 3 Xrotation Yrotation Zrotation
									End Site
									{
										OFFSET 0.000000 12.208862 0.000000
									}
								}
							}
						}
						JOINT newVegas:Jowel
						{
							OFFSET 0.000000 -7.458206 6.864100
							CHANNELS 3 Xrotation Yrotation Zrotation
							End Site
							{
								OFFSET 0.000000 19.849884 0.000000
							}
						}
					}
				}
				JOINT newVegas:LeftShoulder
				{
					OFFSET 15.263000 10.923401 -0.547700
					CHANNELS 3 Xrotation Yrotation Zrotation
					JOINT newVegas:LeftArm
					{
						OFFSET 25.438599 -2.830597 -13.032500
						CHANNELS 3 Xrotation Yrotation Zrotation
						JOINT newVegas:LeftForeArm
						{
							OFFSET 29.960503 0.000000 0.000000
							CHANNELS 3 Xrotation Yrotation Zrotation
							JOINT newVegas:LeftHand
							{
								OFFSET 27.849251 0.000000 0.000000
								CHANNELS 3 Xrotation Yrotation Zrotation
								JOINT newVegas:LeftHandThumb1
								{
									OFFSET 4.487587 -3.305161 6.305391
									CHANNELS 3 Xrotation Yrotation Zrotation
									JOINT newVegas:LeftHandThumb2
									{
										OFFSET 5.480453 -3.164139 3.164143
										CHANNELS 3 Xrotation Yrotation Zrotation
										JOINT newVegas:LeftHandThumb3
										{
											OFFSET 5.159721 -2.978973 2.978967
											CHANNELS 3 Xrotation Yrotation Zrotation
											End Site
											{
												OFFSET 2.494507 5.926697 1.738678
											}
										}
									}
								}
								JOINT newVegas:LeftHandIndex1
								{
									OFFSET 18.578728 -0.527832 5.208049
									CHANNELS 3 Xrotation Yrotation Zrotation
									JOINT newVegas:LeftHandIndex2
									{
										OFFSET 3.192009 0.000000 0.000000
										CHANNELS 3 Xrotation Yrotation Zrotation
										JOINT newVegas:LeftHandIndex3
										{
											OFFSET 3.835129 0.000000 0.000000
											CHANNELS 3 Xrotation Yrotation Zrotation
											End Site
											{
												OFFSET -0.034599 3.816971 0.371180
											}
										}
									}
								}
								JOINT newVegas:LeftHandMiddle1
								{
									OFFSET 18.476105 0.000000 0.000000
									CHANNELS 3 Xrotation Yrotation Zrotation
									JOINT newVegas:LeftHandMiddle2
									{
										OFFSET 3.324875 0.000000 0.000000
										CHANNELS 3 Xrotation Yrotation Zrotation
										JOINT newVegas:LeftHandMiddle3
										{
											OFFSET 4.596550 0.000000 0.000000
											CHANNELS 3 Xrotation Yrotation Zrotation
											End Site
											{
												OFFSET 0.057701 4.578827 0.399218
											}
										}
									}
								}
								JOINT newVegas:LeftHandRing1
								{
									OFFSET 17.732719 0.121887 -4.201567
									CHANNELS 3 Xrotation Yrotation Zrotation
									JOINT newVegas:LeftHandRing2
									{
										OFFSET 2.733170 0.000000 0.000000
										CHANNELS 3 Xrotation Yrotation Zrotation
										JOINT newVegas:LeftHandRing3
										{
											OFFSET 3.178268 0.000000 0.000000
											CHANNELS 3 Xrotation Yrotation Zrotation
											End Site
											{
												OFFSET 0.119102 3.170624 0.185394
											}
										}
									}
								}
								JOINT newVegas:LeftHandPinky1
								{
									OFFSET 15.989624 -0.606689 -7.535461
									CHANNELS 3 Xrotation Yrotation Zrotation
									JOINT newVegas:LeftHandPinky2
									{
										OFFSET 2.538986 0.000000 0.000000
										CHANNELS 3 Xrotation Yrotation Zrotation
										JOINT newVegas:LeftHandPinky3
										{
											OFFSET 2.593102 0.000000 0.000000
											CHANNELS 3 Xrotation Yrotation Zrotation
											End Site
											{
												OFFSET -0.150902 2.584198 0.152708
											}
										}
									}
								}
							}
							JOINT newVegas:Left_Sleeve
							{
								OFFSET 0.267448 -0.649796 0.577675
								CHANNELS 3 Xrotation Yrotation Zrotation
								End Site
								{
									OFFSET 0.000000 15.991241 0.000000
								}
							}
							JOINT newVegas:Left_CapeC
							{
								OFFSET 15.715958 -8.608795 -6.935905
								CHANNELS 3 Xrotation Yrotation Zrotation
								JOINT newVegas:Left_CapeC1
								{
									OFFSET 0.000000 -8.688499 0.000000
									CHANNELS 3 Xrotation Yrotation Zrotation
									End Site
									{
										OFFSET 0.000000 8.688499 0.000000
									}
								}
							}
						}
						JOINT newVegas:Left_CapeB
						{
							OFFSET 26.118385 -8.608795 -7.079235
							CHANNELS 3 Xrotation Yrotation Zrotation
							JOINT newVegas:Left_CapeB1
							{
								OFFSET 0.000000 -8.688499 0.000000
								CHANNELS 3 Xrotation Yrotation Zrotation
								End Site
								{
									OFFSET 0.000000 8.688499 0.000000
								}
							}
						}
						JOINT newVegas:Left_CapeA
						{
							OFFSET 5.115639 -8.608795 -10.395809
							CHANNELS 3 Xrotation Yrotation Zrotation
							JOINT newVegas:Left_CapeA1
							{
								OFFSET 0.000000 -8.688499 0.000000
								CHANNELS 3 Xrotation Yrotation Zrotation
								End Site
								{
									OFFSET 0.000000 8.688499 0.000000
								}
							}
						}
					}
				}
				JOINT newVegas:RightShoulder
				{
					OFFSET -15.263000 10.923401 -0.547700
					CHANNELS 3 Xrotation Yrotation Zrotation
					JOINT newVegas:RightArm
					{
						OFFSET -25.438599 -2.830597 -13.032500
						CHANNELS 3 Xrotation Yrotation Zrotation
						JOINT newVegas:RightForeArm
						{
							OFFSET -29.960503 0.000000 0.000000
							CHANNELS 3 Xrotation Yrotation Zrotation
							JOINT newVegas:RightHand
							{
								OFFSET -27.849251 0.000000 0.000000
								CHANNELS 3 Xrotation Yrotation Zrotation
								JOINT newVegas:RightHandThumb1
								{
									OFFSET -4.487587 -3.305161 6.305391
									CHANNELS 3 Xrotation Yrotation Zrotation
									JOINT newVegas:RightHandThumb2
									{
										OFFSET -5.480453 -3.164139 3.164143
										CHANNELS 3 Xrotation Yrotation Zrotation
										JOINT newVegas:RightHandThumb3
										{
											OFFSET -5.159721 -2.978973 2.978967
											CHANNELS 3 Xrotation Yrotation Zrotation
											End Site
											{
												OFFSET -2.494507 5.926697 1.738678
											}
										}
									}
								}
								JOINT newVegas:RightHandIndex1
								{
									OFFSET -18.578728 -0.527832 5.208049
									CHANNELS 3 Xrotation Yrotation Zrotation
									JOINT newVegas:RightHandIndex2
									{
										OFFSET -3.192009 0.000000 0.000000
										CHANNELS 3 Xrotation Yrotation Zrotation
										JOINT newVegas:RightHandIndex3
										{
											OFFSET -3.835129 0.000000 0.000000
											CHANNELS 3 Xrotation Yrotation Zrotation
											End Site
											{
												OFFSET 0.034599 3.816971 0.371180
											}
										}
									}
								}
								JOINT newVegas:RightHandMiddle1
								{
									OFFSET -18.476105 0.000000 0.000000
									CHANNELS 3 Xrotation Yrotation Zrotation
									JOINT newVegas:RightHandMiddle2
									{
										OFFSET -3.324875 0.000000 0.000000
										CHANNELS 3 Xrotation Yrotation Zrotation
										JOINT newVegas:RightHandMiddle3
										{
											OFFSET -4.596550 0.000000 0.000000
											CHANNELS 3 Xrotation Yrotation Zrotation
											End Site
											{
												OFFSET -0.057701 4.578827 0.399218
											}
										}
									}
								}
								JOINT newVegas:RightHandRing1
								{
									OFFSET -17.732719 0.121887 -4.201567
									CHANNELS 3 Xrotation Yrotation Zrotation
									JOINT newVegas:RightHandRing2
									{
										OFFSET -2.733170 0.000000 0.000000
										CHANNELS 3 Xrotation Yrotation Zrotation
										JOINT newVegas:RightHandRing3
										{
											OFFSET -3.178268 0.000000 0.000000
											CHANNELS 3 Xrotation Yrotation Zrotation
											End Site
											{
												OFFSET -0.119102 3.170624 0.185394
											}
										}
									}
								}
								JOINT newVegas:RightHandPinky1
								{
									OFFSET -15.989624 -0.606689 -7.535461
									CHANNELS 3 Xrotation Yrotation Zrotation
									JOINT newVegas:RightHandPinky2
									{
										OFFSET -2.538986 0.000000 0.000000
										CHANNELS 3 Xrotation Yrotation Zrotation
										JOINT newVegas:RightHandPinky3
										{
											OFFSET -2.593102 0.000000 0.000000
											CHANNELS 3 Xrotation Yrotation Zrotation
											End Site
											{
												OFFSET 0.150902 2.584198 0.152708
											}
										}
									}
								}
							}
							JOINT newVegas:Right_CapeC
							{
								OFFSET -15.715958 -8.608795 -6.935905
								CHANNELS 3 Xrotation Yrotation Zrotation
								JOINT newVegas:Right_CapeC1
								{
									OFFSET 0.000000 -8.688499 0.000000
									CHANNELS 3 Xrotation Yrotation Zrotation
									End Site
									{
										OFFSET 0.000000 8.688499 0.000000
									}
								}
							}
							JOINT newVegas:Right_Sleeve
							{
								OFFSET -0.267448 -0.649994 0.577675
								CHANNELS 3 Xrotation Yrotation Zrotation
								End Site
								{
									OFFSET 0.000000 15.991302 0.000000
								}
							}
						}
						JOINT newVegas:Right_CapeA
						{
							OFFSET -5.115540 -8.608795 -10.395824
							CHANNELS 3 Xrotation Yrotation Zrotation
							JOINT newVegas:Right_CapeA1
							{
								OFFSET 0.000000 -8.688499 0.000000
								CHANNELS 3 Xrotation Yrotation Zrotation
								End Site
								{
									OFFSET 0.000000 8.688499 0.000000
								}
							}
						}
						JOINT newVegas:Right_CapeB
						{
							OFFSET -26.118187 -8.608795 -7.079266
							CHANNELS 3 Xrotation Yrotation Zrotation
							JOINT newVegas:Right_CapeB1
							{
								OFFSET 0.000000 -8.688499 0.000000
								CHANNELS 3 Xrotation Yrotation Zrotation
								End Site
								{
									OFFSET 0.000000 8.688499 0.000000
								}
							}
						}
					}
				}
				JOINT newVegas:Left_Collar
				{
					OFFSET 18.625099 8.655502 8.828100
					CHANNELS 3 Xrotation Yrotation Zrotation
					JOINT newVegas:Left_Collar1
					{
						OFFSET 14.783401 10.540405 -1.259500
						CHANNELS 3 Xrotation Yrotation Zrotation
						End Site
						{
							OFFSET 0.000000 18.199875 0.000000
						}
					}
				}
				JOINT newVegas:Collar_Back
				{
					OFFSET 0.000000 15.630707 -20.132601
					CHANNELS 3 Xrotation Yrotation Zrotation
					End Site
					{
						OFFSET 0.000000 22.523010 0.000000
					}
				}
				JOINT newVegas:Left_Peck
				{
					OFFSET 17.239599 -5.132599 25.482599
					CHANNELS 3 Xrotation Yrotation Zrotation
					End Site
					{
						OFFSET 0.000000 22.523010 0.000000
					}
				}
				JOINT newVegas:Right_Peck
				{
					OFFSET -17.239599 -5.132202 25.482599
					CHANNELS 3 Xrotation Yrotation Zrotation
					End Site
					{
						OFFSET 0.000000 22.523010 0.000000
					}
				}
				JOINT newVegas:Right_Collar
				{
					OFFSET -18.625099 8.655792 8.828100
					CHANNELS 3 Xrotation Yrotation Zrotation
					JOINT newVegas:Right_Collar1
					{
						OFFSET -14.783401 10.539993 -1.259500
						CHANNELS 3 Xrotation Yrotation Zrotation
						End Site
						{
							OFFSET 0.000000 18.199631 0.000000
						}
					}
				}
			}
		}
		JOINT newVegas:Belly
		{
			OFFSET 0.000000 -6.540398 9.014299
			CHANNELS 3 Xrotation Yrotation Zrotation
			End Site
			{
				OFFSET 0.000000 11.566666 0.000000
			}
		}
	}
	JOINT newVegas:ElvisFacialAnim_Joint
	{
		OFFSET 1.000000 -95.330101 -8.825800
		CHANNELS 3 Xrotation Yrotation Zrotation
		End Site
		{
			OFFSET 0.000000 35.315800 0.000000
		}
	}
}
MOTION
Frames: 4
Frame Time: 0.033333
-2.506412 80.373833 2.723880 -5.062208 -42.316294 0.343030 -0.000000 -0.000001 0.000000 -36.910769 3.269493 21.343948 62.508191 -8.152317 4.188286 -22.911147 -6.711842 -18.589871 -0.000000 0.000000 -0.000000 -0.000001 0.000003 0.000002 -20.977787 -8.980941 -32.624703 63.053841 -6.514570 -7.419381 -31.032049 -9.960261 27.205175 0.000000 -0.000000 -0.000000 -0.000000 -0.000001 -0.000001 9.462110 7.035671 -1.694602 2.187712 0.989895 -0.915630 2.202830 0.982772 -0.894152 2.650058 3.452598 -0.064171 2.650058 3.452608 -0.064173 -0.000000 0.000002 -0.000000 2.650052 3.452599 -0.064175 2.650130 3.452615 -0.064181 -0.000000 0.000000 -0.000001 -0.000000 0.000002 0.000000 1.117179 3.546348 -8.633312 -53.487013 4.935509 -51.502990 -0.000160 -106.358114 -0.000154 1.988608 -7.706143 -15.869239 -6.141213 -11.690794 -6.761696 9.914105 42.595525 3.409861 -0.000000 0.000002 -0.000001 0.255318 3.378228 -45.814354 5.654092 5.847754 -88.067455 0.000002 -0.000000 -0.000001 -0.461471 3.841590 -39.722686 6.450734 5.820339 -95.892844 0.000003 -0.000000 -0.000001 0.469733 4.966812 -39.799461 8.181037 5.368596 -113.503004 -0.000001 0.000001 0.000001 -3.762416 9.063723 -45.253842 5.342518 5.828978 -85.005311 -0.000001 -0.000003 -0.000000 -0.000000 0.000000 -0.000000 -0.000000 0.000000 -0.000000 -0.000000 0.000001 -0.000000 -0.000000 0.000002 -0.000001 -0.000000 0.000001 -0.000001 -0.000000 0.000002 -0.000001 -0.000000 -0.000000 -0.000000 3.036127 13.027199 -5.371408 -48.713705 27.172832 83.457050 0.000764 105.988348 -0.000757 -8.345386 17.548098 8.775704 -7.341093 13.749657 7.412313 9.855741 -44.489100 -3.903255 0.000001 0.000005 -0.000000 -0.124363 -2.384786 45.108864 4.500588 -4.654543 88.071157 -0.000000 -0.000001 -0.000001 -0.761612 -2.932890 39.031061 5.133870 -4.632750 95.881656 -0.000000 -0.000001 0.000001 0.154771 -4.068796 39.122658 6.509715 -4.273581 113.462843 -0.000001 0.000002 0.000001 -4.198862 -8.025529 44.637766 4.252890 -4.639599 85.014818 0.000001 0.000002 -0.000003 0.000001 0.000004 -0.000001 0.000001 -0.000001 0.000001 0.000001 0.000004 -0.000001 0.000000 0.000001 -0.000001 0.000000 0.000002 -0.000001 0.000000 0.000001 -0.000001 0.000000 0.000002 -0.000000 0.000000 0.000000 0.000000 0.000000 0.000000 0.000000 0.000000 0.000000 0.000000 0.000000 0.000000 0.000000 0.000000 0.000000 0.000000 0.000000 0.000000 0.000000 0.000000 0.000000 0.000000 -0.000000 -0.000003 0.000000 -0.000000 -0.000001 0.000000 
-2.722580 80.089035 3.397440 -4.981025 -42.385897 0.566913 -0.000000 -0.000001 -0.000000 -36.649460 3.285660 20.949133 63.606150 -7.975649 4.260265 -24.206926 -6.416113 -18.450467 0.000000 -0.000001 0.000000 0.000001 -0.000002 0.000003 -20.360162 -8.781379 -33.160616 63.029778 -6.349512 -7.415440 -31.420779 -10.213443 27.796575 -0.000000 0.000001 0.000000 -0.000000 0.000003 0.000003 9.522382 7.085579 -1.862330 2.211791 1.082262 -1.010577 2.228779 1.072000 -0.986023 2.573907 3.416050 -0.027856 2.573911 3.416032 -0.027849 0.000002 -0.000000 -0.000000 2.573979 3.416042 -0.027859 2.573837 3.416022 -0.027846 -0.000001 -0.000003 0.000000 0.000002 -0.000000 -0.000000 1.070826 3.866033 -8.807712 -51.302811 4.507551 -52.062588 -0.000147 -106.511609 -0.000159 1.630480 -7.829902 -15.945659 -6.141213 -11.690798 -6.761690 9.914105 42.595525 3.409861 0.000002 0.000000 -0.000004 0.255319 3.378222 -45.814351 5.654094 5.847755 -88.067455 0.000001 0.000000 0.000001 -0.461469 3.841590 -39.722683 6.450733 5.820341 -95.892844 -0.000001 -0.000001 0.000000 0.469732 4.966810 -39.799461 8.181037 5.368600 -113.503004 -0.000001 0.000003 0.000000 -3.762417 9.063718 -45.253835 5.342515 5.828973 -85.005311 -0.000001 -0.000005 -0.000000 0.000001 0.000002 -0.000001 0.000001 0.000002 -0.000001 0.000001 0.000002 -0.000001 -0.000001 0.000001 -0.000001 -0.000001 0.000000 -0.000001 -0.000001 0.000001 -0.000001 -0.000001 -0.000000 -0.000000 3.056301 12.908689 -5.238760 -47.550349 27.292514 83.314873 -0.000402 105.392209 0.000394 -8.328680 18.082449 9.022501 -7.341095 13.749660 7.412313 9.855741 -44.489103 -3.903251 0.000001 -0.000002 0.000004 -0.124362 -2.384786 45.108861 4.500591 -4.654544 88.071157 -0.000001 -0.000000 0.000002 -0.761613 -2.932892 39.031068 5.133864 -4.632751 95.881656 -0.000001 -0.000001 -0.000000 0.154773 -4.068793 39.122661 6.509714 -4.273579 113.462843 -0.000000 0.000001 0.000000 -4.198863 -8.025526 44.637769 4.252885 -4.639603 85.014818 0.000002 -0.000000 0.000000 0.000000 0.000004 -0.000001 0.000000 0.000002 -0.000001 0.000000 0.000003 0.000000 0.000000 0.000003 -0.000000 0.000000 0.000003 -0.000000 0.000000 0.000003 -0.000000 0.000000 0.000003 -0.000001 -0.000000 0.000001 -0.000000 -0.000000 0.000001 -0.000000 -0.000000 0.000001 -0.000000 -0.000000 0.000001 -0.000000 -0.000000 0.000001 -0.000000 -0.000000 0.000001 -0.000000 -0.000000 0.000001 -0.000000 -0.000000 0.000002 -0.000000 -0.000000 -0.000001 -0.000000 
-2.970084 79.771202 4.088069 -4.949087 -42.488961 0.662844 0.000000 -0.000002 -0.000000 -36.375760 3.288319 20.642143 64.846233 -7.874377 4.429817 -25.630411 -6.036182 -18.329306 -0.000000 0.000002 0.000000 0.000001 0.000000 -0.000000 -19.778034 -8.793808 -33.771782 63.019259 -5.923894 -7.346682 -31.876366 -10.440289 28.220938 -0.000000 -0.000000 0.000000 0.000001 -0.000000 -0.000002 9.531715 7.170018 -1.877223 2.198779 1.200440 -0.957200 2.213392 1.190413 -0.930403 2.507805 3.348054 -0.028902 2.507808 3.348071 -0.028908 0.000000 -0.000000 -0.000001 2.508022 3.348030 -0.028910 2.507585 3.348119 -0.028903 -0.000001 -0.000000 -0.000000 0.000000 -0.000000 -0.000001 1.003686 4.148395 -8.847906 -48.952898 4.251151 -52.396881 0.000149 -106.859334 0.000166 1.347576 -8.242064 -15.343646 -6.141211 -11.690793 -6.761699 9.914107 42.595522 3.409857 0.000002 0.000004 -0.000000 0.255323 3.378226 -45.814358 5.654091 5.847756 -88.067455 0.000003 0.000003 0.000001 -0.461466 3.841589 -39.722683 6.450738 5.820340 -95.892844 -0.000000 0.000001 0.000000 0.469736 4.966809 -39.799461 8.181037 5.368599 -113.502998 -0.000003 -0.000001 0.000000 -3.762413 9.063725 -45.253838 5.342521 5.828977 -85.005311 0.000002 -0.000002 -0.000000 -0.000000 0.000001 0.000000 -0.000000 0.000001 0.000000 -0.000000 0.000001 0.000001 0.000002 0.000003 0.000000 0.000002 0.000002 -0.000001 0.000002 0.000003 0.000000 0.000001 0.000002 0.000001 3.144241 13.004073 -5.082335 -46.591818 27.594198 82.455731 0.000728 104.508854 -0.000713 -8.859486 18.534893 8.997056 -7.341094 13.749656 7.412311 9.855745 -44.489103 -3.903263 0.000002 0.000001 -0.000000 -0.124366 -2.384791 45.108868 4.500591 -4.654545 88.071157 0.000001 -0.000001 -0.000000 -0.761614 -2.932895 39.031068 5.133868 -4.632750 95.881649 0.000001 -0.000002 0.000002 0.154772 -4.068799 39.122658 6.509711 -4.273579 113.462843 -0.000000 -0.000003 -0.000001 -4.198863 -8.025530 44.637766 4.252886 -4.639602 85.014818 0.000002 0.000002 0.000000 -0.000000 0.000005 -0.000002 -0.000000 0.000001 -0.000003 -0.000000 0.000004 -0.000002 -0.000000 -0.000001 -0.000001 -0.000000 0.000000 0.000001 -0.000000 -0.000001 -0.000001 -0.000000 -0.000000 0.000000 0.000001 -0.000001 0.000000 0.000001 -0.000001 0.000000 0.000001 -0.000001 0.000000 0.000001 -0.000001 0.000000 0.000001 -0.000001 0.000000 0.000001 -0.000001 0.000000 0.000001 -0.000001 0.000000 0.000000 0.000000 -0.000000 0.000000 -0.000002 -0.000000 
-3.230384 79.402069 4.803536 -5.143658 -42.679045 0.412485 -0.000000 -0.000001 0.000000 -36.011571 3.239064 20.569784 66.392307 -7.828730 4.668967 -27.281355 -5.567084 -18.214187 0.000000 -0.000001 0.000000 -0.000000 -0.000002 0.000002 -19.167753 -9.085594 -34.400326 63.005497 -5.190889 -7.273382 -32.349098 -10.628778 28.485244 0.000000 0.000002 -0.000000 0.000000 -0.000000 -0.000002 9.499614 7.292049 -1.696693 2.159865 1.340862 -0.702695 2.166495 1.335468 -0.674193 2.452888 3.264350 -0.062930 2.452902 3.264359 -0.062932 0.000001 0.000000 -0.000001 2.452893 3.264356 -0.062930 2.452821 3.264354 -0.062930 -0.000001 0.000000 -0.000000 0.000001 0.000000 -0.000001 0.896907 4.416688 -8.711399 -46.302143 4.136591 -52.472375 0.000458 -107.142971 0.000460 1.432758 -8.931128 -13.885244 -6.141211 -11.690798 -6.761693 9.914109 42.595529 3.409857 -0.000002 -0.000001 -0.000008 0.255318 3.378228 -45.814354 5.654093 5.847754 -88.067455 -0.000001 0.000000 0.000001 -0.461468 3.841590 -39.722679 6.450733 5.820339 -95.892844 0.000000 -0.000002 0.000001 0.469731 4.966812 -39.799458 8.181034 5.368598 -113.502998 -0.000002 0.000003 0.000002 -3.762418 9.063721 -45.253835 5.342515 5.828974 -85.005311 0.000000 -0.000003 0.000002 0.000001 0.000003 0.000002 0.000001 0.000003 0.000002 0.000001 0.000003 0.000002 0.000000 -0.000002 -0.000002 0.000000 -0.000003 -0.000001 0.000000 -0.000002 -0.000002 0.000000 -0.000003 -0.000001 3.320790 13.377117 -4.890086 -45.783851 28.099511 80.733376 0.000532 103.342798 -0.000521 -10.110561 18.812679 8.688743 -7.341097 13.749657 7.412307 9.855739 -44.489100 -3.903262 0.000000 -0.000000 -0.000001 -0.124364 -2.384787 45.108864 4.500589 -4.654547 88.071157 0.000000 -0.000001 -0.000001 -0.761613 -2.932892 39.031061 5.133866 -4.632749 95.881649 -0.000001 -0.000002 0.000001 0.154771 -4.068796 39.122658 6.509712 -4.273582 113.462843 0.000000 -0.000003 -0.000001 -4.198865 -8.025530 44.637769 4.252886 -4.639603 85.014818 0.000003 0.000005 0.000001 0.000001 -0.000001 0.000001 0.000001 -0.000003 -0.000000 0.000001 -0.000001 -0.000001 0.000000 -0.000003 -0.000003 0.000000 -0.000002 -0.000001 0.000000 -0.000003 -0.000003 0.000000 -0.000002 -0.000001 0.000000 -0.000001 0.000000 0.000000 -0.000001 0.000000 0.000000 -0.000001 0.000000 0.000000 -0.000001 0.000000 0.000000 -0.000001 0.000000 0.000000 -0.000001 0.000000 0.000000 -0.000001 0.000000 -0.000000 -0.000001 -0.000000 -0.000000 -0.000001 0.000000 
